<svg xmlns="http://www.w3.org/2000/svg" width="250" height="250" fill="none" xmlns:v="https://vecta.io/nano"><rect width="250" height="250" rx="20" fill="#e9e9e9"/><path d="M87.263 118.163l1.025-48.706c4.785-.342 8.403-.513 10.852-.513 8.089 0 14.527 1.823 19.312 5.469 4.785 3.589 7.177 9.285 7.177 17.09 0 17.774-12.789 26.661-38.366 26.661zm.855 65.026l-.855-59.814a178.17 178.17 0 0 1 13.33-.513c12.247 0 21.989 2.25 29.223 6.751s10.852 11.592 10.852 21.277c0 5.696-1.053 10.595-3.161 14.697-2.108 4.045-4.757 7.178-7.947 9.399-3.133 2.222-7.206 3.988-12.219 5.298-5.013 1.253-9.684 2.051-14.014 2.393-4.272.342-9.342.512-15.21.512zm13.159-3.674c5.127-.342 9.628-.94 13.501-1.794 3.931-.855 7.662-2.279 11.194-4.273 3.589-1.994 6.352-4.87 8.289-8.63 1.937-3.817 2.905-8.46 2.905-13.928 0-5.868-1.994-10.795-5.981-14.783-3.988-4.045-8.688-6.779-14.1-8.203-5.411-1.481-10.966-1.937-16.662-1.367l.854 52.978zm0-106.897l-.683 41.443c14.355-2.165 21.533-9.684 21.533-22.559 0-11.792-6.95-18.087-20.85-18.884zM51.887 189.513c11.108-.342 24.353-.513 39.734-.513 5.127 0 9.741-.114 13.842-.342s9.001-.712 14.698-1.452c5.696-.798 10.681-2.08 14.953-3.846 4.273-1.823 8.374-4.073 12.305-6.75 3.988-2.735 7.035-6.295 9.143-10.681 2.108-4.444 3.162-9.599 3.162-15.467 0-8.943-3.504-16.263-10.511-21.96-7.006-5.754-15.637-9.456-25.891-11.108v-.684c6.665-2.108 12.02-5.241 16.065-9.399 4.101-4.216 6.152-9.485 6.152-15.809 0-18.742-14.241-28.113-42.725-28.113-2.221 0-5.952.114-11.193.342s-11.051.342-17.432.342c-6.323 0-13.7-.228-22.131-.684-.456 1.025-.456 2.364 0 4.016 13.102 1.253 19.71 3.988 19.824 8.203.57 13.387.855 29.309.855 47.766 0 18.058-.342 36.031-1.025 53.918-.114 4.216-6.722 6.95-19.824 8.204-.456.911-.456 2.25 0 4.016zM49.665 59.715c8.26.342 16.065.513 23.413.513l21.533-.171 14.356-.171c4.785 0 9.114.171 12.988.513 3.931.342 8.289 1.168 13.074 2.478 4.785 1.253 8.801 2.962 12.048 5.127 3.304 2.165 6.067 5.269 8.289 9.314 2.221 3.988 3.332 8.716 3.332 14.185 0 10.14-5.611 18.315-16.833 24.524 9.228 2.678 16.691 6.979 22.387 12.903 5.754 5.868 8.631 13.045 8.631 21.533 0 5.526-.94 10.482-2.82 14.869-1.88 4.329-4.272 7.946-7.178 10.852-2.905 2.848-6.608 5.326-11.108 7.434-4.5 2.05-8.83 3.646-12.988 4.785-4.159 1.082-8.944 1.937-14.356 2.563-5.412.684-10.054 1.111-13.928 1.282-3.817.171-8.061.256-12.732.256-13.558 0-29.651.228-48.279.684-1.424-3.931-1.424-7.605 0-11.023 12.362-1.253 18.599-2.934 18.713-5.041a1407.34 1407.34 0 0 0 1.025-53.748c0-18.343-.285-34.208-.855-47.595-.114-2.108-6.466-3.788-19.055-5.041-.968-3.646-.854-7.32.342-11.023zm128.15 113.733c-1.766 1.937-2.649 4.387-2.649 7.349 0 1.424.228 2.791.684 4.101a11.65 11.65 0 0 0 2.05 3.333c.855.911 1.823 1.652 2.906 2.222 1.139.569 2.364.854 3.674.854 1.253 0 2.421-.285 3.503-.854a10.5 10.5 0 0 0 2.991-2.222c.855-.968 1.51-2.079 1.965-3.333.513-1.31.769-2.677.769-4.101s-.256-2.763-.769-4.016a10.3 10.3 0 0 0-1.965-3.333 9.8 9.8 0 0 0-2.991-2.307c-1.082-.57-2.25-.854-3.503-.854-2.563 0-4.785 1.053-6.665 3.161zm7.861-6.665c12.818 0 19.226 4.671 19.226 14.014s-6.408 14.014-19.226 14.014c-1.88 0-3.674-.371-5.383-1.111-1.652-.741-3.133-1.738-4.443-2.991-1.254-1.253-2.279-2.734-3.077-4.443-.74-1.709-1.11-3.532-1.11-5.469s.37-3.76 1.11-5.469 1.738-3.19 2.991-4.443c1.31-1.253 2.82-2.25 4.529-2.991s3.503-1.111 5.383-1.111z" fill="#1a1a1a"/></svg>